<?xml version="1.0" encoding="UTF-8"?><svg id="Camada_1" xmlns="http://www.w3.org/2000/svg" viewBox="0 0 1604.73 1908.64"><defs><style>.cls-1{fill:#6d6d6c;}</style></defs><g id="tBZWxv"><path class="cls-1" d="m1604.73,1399.61c-.37,1.94-.46,4.3-1.27,6.38-10.42,26.96-20.52,54.05-31.53,80.77-14.93,36.24-32.75,71.07-52.11,105.18-20.69,36.45-43.41,71.51-68.58,104.99-18.54,24.66-36.43,49.87-55.99,73.7-30.02,36.55-62.97,70.31-102.89,96.37-29.29,19.12-61.28,32.52-95.87,37.22-31.44,4.27-62.99,2.08-94.19-5.4-36-8.63-70.53-21.22-104.81-34.93-33.72-13.49-68.67-23.56-104.67-28.44-30.02-4.07-60.3-4.54-90.69-1.26-28.27,3.06-55.67,9.18-82.83,17.26-23.6,7.02-46.35,16.19-69.25,25.09-29.44,11.44-59.51,21.34-90.56,27.13-26.83,5.01-53.89,7.19-81.39,1.95-28.6-5.45-54.5-16.58-78.87-31.85-40.16-25.16-73.46-58.07-104.45-93.5-25.15-28.75-48.51-58.92-70.53-90.13-13.02-18.46-26.84-36.4-39.08-55.35-13.48-20.88-26.17-42.33-38.08-64.14-13.7-25.09-26.57-50.65-39.02-76.38-7.79-16.11-14.35-32.84-21.08-49.45-6.86-16.92-13.55-33.93-19.82-51.08-12.23-33.4-23.32-67.16-31.7-101.77-4.84-20.02-10.61-39.86-14.64-60.04-4.81-24.12-8.46-48.48-12.13-72.81-2.48-16.45-4.55-32.99-6.05-49.56-3.38-37.21-2.72-74.52-2.39-111.84.27-30.43,4.06-60.41,8.61-90.39,3.84-25.36,9.54-50.24,16.41-74.95,11.17-40.2,26.64-78.65,46.55-115.18,23.47-43.06,51.64-82.9,86.4-117.76,29.7-29.78,62.59-55.43,98.97-76.72,19.28-11.28,38.97-21.62,59.57-30.09,33.93-13.95,68.83-24.86,105.36-29.36,22.45-2.76,45.01-5.21,67.58-6.05,14.51-.54,29.24,1.43,43.7,3.46,27.71,3.88,54.97,10.05,81.47,19.21,24.47,8.45,48.86,17.11,73.36,25.48,26.1,8.93,52.15,18.06,78.48,26.26,13.28,4.14,27.04,7.05,40.79,9.27,7.01,1.14,14.79.77,21.66-1.05,21.18-5.62,42.3-11.65,63.05-18.67,36.19-12.25,71.96-25.76,108.15-38.01,36.6-12.38,74.04-22.16,112.3-27.32,29.3-3.95,58.93-4.56,88.72-1.94,25.63,2.25,50.8,6.68,75.96,11.32,15.32,2.83,30.48,7.12,45.29,12.01,18.27,6.03,36.2,13.14,54.12,20.19,19.54,7.7,37.66,18.25,55.48,29.25,23.83,14.7,45.83,31.89,66.05,51.18,19.71,18.81,37.23,39.66,53.58,61.45.92,1.22,1.06,3.03,1.5,4.38-13.94,9.62-27.63,18.83-41.08,28.39-23.32,16.59-45.15,35.03-64.2,56.39-14.12,15.83-28.01,32.04-40.21,49.35-15.32,21.73-28.16,45.1-37.35,70.24-3.64,9.97-7.02,20.04-10.68,30-7.41,20.13-11.52,41.14-14.12,62.22-4.44,36.07-5.04,72.28-1.9,108.68,2.83,32.72,8.96,64.66,19.61,95.48,7.46,21.58,17.25,42.51,27.63,62.89,10.55,20.71,24.06,39.7,38.73,57.86,16.79,20.79,35.45,39.71,55.3,57.48,20.58,18.42,42.56,35.07,66.61,48.72,16.99,9.64,34.48,18.4,52.99,28.22Z"/><path class="cls-1" d="m805.09,451.52c-3.96-20.68-3.3-40.34-2.01-59.89,2.28-34.7,9.97-68.43,22.01-100.98,10.49-28.35,23.13-55.87,40.13-81.03,11.88-17.58,23.89-35.16,37.06-51.78,23.4-29.51,50.87-54.79,81.86-76.39,21.86-15.23,44.69-28.73,68.62-40.2,33.64-16.13,68.72-28.57,105.37-35.88,13.95-2.78,28.31-3.54,43.78-5.38.87,8.71,2.13,16.5,2.35,24.32,1.1,39.85-3.7,78.97-14.53,117.41-9.79,34.75-24.5,67.17-42.91,98.17-25.1,42.28-56.38,79.36-92.1,112.93-23.32,21.91-48.67,41.15-76.27,57.22-28.26,16.46-58.38,29.06-90.36,35.86-21.4,4.55-43.27,7.69-65.38,6.88-5.63-.21-11.24-.79-17.62-1.26Z"/></g></svg>