<?xml version="1.0" encoding="UTF-8"?><svg id="Layer_1" xmlns="http://www.w3.org/2000/svg" viewBox="0 0 61.86 61.82"><defs><style>.cls-1{fill:#fff;stroke:#000;stroke-miterlimit:10;stroke-width:.75px;}</style></defs><g id="C3bchR.tif"><path class="cls-1" d="m61.48,30.9c.13,16.84-13.92,30.93-31.28,30.53C14.41,61.08.39,48.31.38,30.92.36,13.43,14.72-.02,31.67.38c16.78.4,29.92,14.21,29.81,30.52Z"/><path d="m42.85,24.97c-2.46,1.52-3.71,3.61-3.5,6.43.21,2.78,1.77,4.64,4.29,5.89-.2.52-.39,1.04-.61,1.55-.92,2.1-2.18,3.97-3.84,5.54-1.2,1.14-2.62,1.44-4.2.92-.25-.08-.51-.13-.74-.24-2.08-.97-4.12-.88-6.23-.01-2.45,1-3.84.62-5.6-1.37-3.09-3.5-4.84-7.56-4.97-12.25-.05-1.86.31-3.65,1.21-5.32,1.59-2.92,5.36-5.31,9.46-3.57,1.8.77,3.41.75,5.21,0,2.97-1.23,5.83-.85,8.37,1.21.4.32.72.74,1.16,1.21Z"/><path d="m30.6,21.87c-.53-3.39,2.82-7.23,6.35-7.31.86,3.03-2.87,7.72-6.35,7.31Z"/></g></svg>