<?xml version="1.0" encoding="UTF-8"?><svg id="Layer_1" xmlns="http://www.w3.org/2000/svg" xmlns:xlink="http://www.w3.org/1999/xlink" viewBox="0 0 34.66 34.66"><defs><style>.cls-1{fill:none;}.cls-2{clip-path:url(#clippath);}.cls-3{fill:url(#Gradiente_sem_nome_4);}.cls-4{fill:#656565;}.cls-5{fill:#666;}.cls-6{fill:#323230;}.cls-7{fill:#30302e;}.cls-8{fill:#333331;}.cls-9{fill:#252523;}.cls-10{fill:#242422;}.cls-11{fill:#1f1f1d;}.cls-12{fill:#1e1e1c;}.cls-13{fill:#222220;}.cls-14{fill:#21211f;}.cls-15{fill:#20201e;}.cls-16{fill:#232321;}.cls-17{fill:#434343;}.cls-18{fill:#40403e;}.cls-19{fill:#41413f;}.cls-20,.cls-21{fill:#1d1d1b;}.cls-22{fill:#424242;}.cls-23{fill:#424241;}.cls-24{fill:#363634;}.cls-25{fill:#373735;}.cls-26{fill:#444;}.cls-27{fill:#454545;}.cls-28{fill:#3e3e3c;}.cls-29{fill:#3f3f3d;}.cls-30{fill:#545454;}.cls-31{fill:#464646;}.cls-32{fill:#535353;}.cls-33{fill:#555;}.cls-34{fill:#646464;}.cls-35{fill:#636363;}.cls-36{fill:#626262;}.cls-37{fill:#5b5b5b;}.cls-38{fill:#292927;}.cls-39{fill:#595959;}.cls-40{fill:#2b2b29;}.cls-41{fill:#2c2c2a;}.cls-42{fill:#565656;}.cls-43{fill:#4a4a4a;}.cls-44{fill:#474747;}.cls-45{fill:#2a2a28;}.cls-46{fill:#484848;}.cls-47{fill:#2d2d2b;}.cls-48{fill:#353533;}.cls-49{fill:#5c5c5c;}.cls-50{fill:#3b3b39;}.cls-51{fill:#383836;}.cls-52{fill:#262624;}.cls-53{fill:#31312f;}.cls-54{fill:#3a3a38;}.cls-55{fill:#3d3d3b;}.cls-56{fill:#272725;}.cls-57{fill:#5a5a5a;}.cls-58{fill:#393937;}.cls-59{fill:#585858;}.cls-60{fill:#575757;}.cls-61{fill:#3c3c3a;}.cls-62{fill:#2f2f2d;}.cls-63{fill:#2e2e2c;}.cls-64{fill:#4c4c4c;}.cls-65{fill:#5f5f5f;}.cls-66{fill:#616161;}.cls-67{fill:#494949;}.cls-68{fill:#606060;}.cls-69{fill:#5d5d5d;}.cls-70{fill:#4b4b4b;}.cls-71{fill:#5e5e5e;}.cls-72{fill:#4f4f4f;}.cls-73{fill:#525252;}.cls-74{fill:#505050;}.cls-75{fill:#282826;}.cls-76{fill:#343432;}.cls-77{fill:#4d4d4d;}.cls-78{fill:#4e4e4e;}.cls-79{fill:#515151;}.cls-80{clip-path:url(#clippath-1);}.cls-81,.cls-21{opacity:.15;}.cls-81,.cls-82{fill:#fff;}.cls-83{opacity:.3;}.cls-84{opacity:.6;}.cls-82{filter:url(#drop-shadow-1);opacity:.5;}.cls-85{fill:url(#Gradiente_sem_nome_4-3);}.cls-86{fill:url(#Gradiente_sem_nome_4-2);}</style><filter id="drop-shadow-1" filterUnits="userSpaceOnUse"><feOffset dx=".71" dy=".71"/><feGaussianBlur result="blur" stdDeviation=".71"/><feFlood flood-color="#000" flood-opacity="1"/><feComposite in2="blur" operator="in"/><feComposite in="SourceGraphic"/></filter><clipPath id="clippath"><path class="cls-1" d="m17.33,2.27c-8.32,0-15.06,6.74-15.06,15.06s6.74,15.06,15.06,15.06,15.06-6.74,15.06-15.06S25.65,2.27,17.33,2.27Zm0,28.99c-7.69,0-13.93-6.24-13.93-13.93S9.64,3.4,17.33,3.4s13.93,6.24,13.93,13.93-6.24,13.93-13.93,13.93Z"/></clipPath><linearGradient id="Gradiente_sem_nome_4" x1="1.77" y1="17.33" x2="32.89" y2="17.33" gradientUnits="userSpaceOnUse"><stop offset="0" stop-color="#666"/><stop offset="1" stop-color="#1d1d1b"/></linearGradient><clipPath id="clippath-1"><path class="cls-1" d="m17.33,6.29c-6.1,0-11.04,4.94-11.04,11.04s4.94,11.04,11.04,11.04,11.04-4.94,11.04-11.04-4.94-11.04-11.04-11.04Zm0,21.26c-5.64,0-10.22-4.58-10.22-10.22s4.58-10.22,10.22-10.22,10.22,4.58,10.22,10.22-4.58,10.22-10.22,10.22Z"/></clipPath><linearGradient id="Gradiente_sem_nome_4-2" x1="5.83" x2="28.83" xlink:href="#Gradiente_sem_nome_4"/><linearGradient id="Gradiente_sem_nome_4-3" x1="8.9" y1="21.22" x2="23.78" y2="14.35" xlink:href="#Gradiente_sem_nome_4"/></defs><circle class="cls-82" cx="17.33" cy="17.33" r="8.08"/><g class="cls-83"><g class="cls-2"><rect class="cls-34" x="3.4" y="3.4" width=".08" height="27.87"/><rect class="cls-35" x="3.48" y="3.4" width=".4" height="27.87"/><rect class="cls-36" x="3.88" y="3.4" width=".4" height="27.87"/><rect class="cls-66" x="4.28" y="3.4" width=".4" height="27.87"/><rect class="cls-68" x="4.68" y="3.4" width=".4" height="27.87"/><rect class="cls-65" x="5.08" y="3.4" width=".4" height="27.87"/><rect class="cls-71" x="5.48" y="3.4" width=".4" height="27.87"/><rect class="cls-69" x="5.89" y="3.4" width=".4" height="27.87"/><rect class="cls-49" x="6.29" y="3.4" width=".4" height="27.87"/><rect class="cls-37" x="6.69" y="3.4" width=".4" height="27.87"/><rect class="cls-57" x="7.09" y="3.4" width=".4" height="27.87"/><rect class="cls-39" x="7.49" y="3.4" width=".4" height="27.87"/><rect class="cls-59" x="7.89" y="3.4" width=".4" height="27.87"/><rect class="cls-60" x="8.3" y="3.4" width=".4" height="27.87"/><rect class="cls-42" x="8.7" y="3.4" width=".4" height="27.87"/><rect class="cls-33" x="9.1" y="3.4" width=".4" height="27.87"/><rect class="cls-30" x="9.5" y="3.4" width=".4" height="27.87"/><rect class="cls-32" x="9.9" y="3.4" width=".4" height="27.87"/><rect class="cls-73" x="10.3" y="3.4" width=".4" height="27.87"/><rect class="cls-79" x="10.7" y="3.4" width=".4" height="27.87"/><rect class="cls-74" x="11.11" y="3.4" width=".4" height="27.87"/><rect class="cls-72" x="11.51" y="3.4" width=".4" height="27.87"/><rect class="cls-78" x="11.91" y="3.4" width=".4" height="27.87"/><rect class="cls-77" x="12.31" y="3.4" width=".4" height="27.87"/><rect class="cls-64" x="12.71" y="3.4" width=".4" height="27.87"/><rect class="cls-70" x="13.11" y="3.4" width=".4" height="27.87"/><rect class="cls-43" x="13.52" y="3.4" width=".4" height="27.87"/><rect class="cls-67" x="13.92" y="3.4" width=".4" height="27.87"/><rect class="cls-46" x="14.32" y="3.4" width=".4" height="27.87"/><rect class="cls-44" x="14.72" y="3.4" width=".4" height="27.87"/><rect class="cls-31" x="15.12" y="3.4" width=".4" height="27.87"/><rect class="cls-27" x="15.52" y="3.4" width=".4" height="27.87"/><rect class="cls-26" x="15.92" y="3.4" width=".4" height="27.87"/><rect class="cls-17" x="16.33" y="3.4" width=".4" height="27.87"/><rect class="cls-22" x="16.73" y="3.4" width=".4" height="27.87"/><rect class="cls-23" x="17.13" y="3.4" width=".4" height="27.87"/><rect class="cls-19" x="17.53" y="3.4" width=".4" height="27.87"/><rect class="cls-18" x="17.93" y="3.4" width=".4" height="27.87"/><rect class="cls-29" x="18.33" y="3.4" width=".4" height="27.87"/><rect class="cls-28" x="18.74" y="3.4" width=".4" height="27.87"/><rect class="cls-55" x="19.14" y="3.4" width=".4" height="27.87"/><rect class="cls-61" x="19.54" y="3.4" width=".4" height="27.87"/><rect class="cls-50" x="19.94" y="3.4" width=".4" height="27.87"/><rect class="cls-54" x="20.34" y="3.4" width=".4" height="27.87"/><rect class="cls-58" x="20.74" y="3.4" width=".4" height="27.87"/><rect class="cls-51" x="21.14" y="3.4" width=".4" height="27.87"/><rect class="cls-25" x="21.55" y="3.4" width=".4" height="27.87"/><rect class="cls-24" x="21.95" y="3.4" width=".4" height="27.87"/><rect class="cls-48" x="22.35" y="3.4" width=".4" height="27.87"/><rect class="cls-76" x="22.75" y="3.4" width=".4" height="27.87"/><rect class="cls-8" x="23.15" y="3.4" width=".4" height="27.87"/><rect class="cls-6" x="23.55" y="3.4" width=".4" height="27.87"/><rect class="cls-53" x="23.96" y="3.4" width=".4" height="27.87"/><rect class="cls-7" x="24.36" y="3.4" width=".4" height="27.87"/><rect class="cls-62" x="24.76" y="3.4" width=".4" height="27.87"/><rect class="cls-63" x="25.16" y="3.4" width=".4" height="27.87"/><rect class="cls-47" x="25.56" y="3.4" width=".4" height="27.87"/><rect class="cls-41" x="25.96" y="3.4" width=".4" height="27.87"/><rect class="cls-40" x="26.36" y="3.4" width=".4" height="27.87"/><rect class="cls-45" x="26.77" y="3.4" width=".4" height="27.87"/><rect class="cls-38" x="27.17" y="3.4" width=".4" height="27.87"/><rect class="cls-75" x="27.57" y="3.4" width=".4" height="27.87"/><rect class="cls-56" x="27.97" y="3.4" width=".4" height="27.87"/><rect class="cls-52" x="28.37" y="3.4" width=".4" height="27.87"/><rect class="cls-9" x="28.77" y="3.4" width=".4" height="27.87"/><rect class="cls-10" x="29.18" y="3.4" width=".4" height="27.87"/><rect class="cls-16" x="29.58" y="3.4" width=".4" height="27.87"/><rect class="cls-13" x="29.98" y="3.4" width=".4" height="27.87"/><rect class="cls-14" x="30.38" y="3.4" width=".4" height="27.87"/><rect class="cls-15" x="30.78" y="3.4" width=".4" height="27.87"/><rect class="cls-11" x="31.18" y="3.4" width=".08" height="27.87"/><rect class="cls-5" x="2.27" y="2.27" width=".4" height="30.11"/><rect class="cls-4" x="2.67" y="2.27" width=".4" height="30.11"/><rect class="cls-34" x="3.08" y="2.27" width=".4" height="30.11"/><rect class="cls-35" x="3.48" y="2.27" width=".4" height="30.11"/><rect class="cls-36" x="3.88" y="2.27" width=".4" height="30.11"/><rect class="cls-66" x="4.28" y="2.27" width=".4" height="30.11"/><rect class="cls-68" x="4.68" y="2.27" width=".4" height="30.11"/><rect class="cls-65" x="5.08" y="2.27" width=".4" height="30.11"/><rect class="cls-71" x="5.48" y="2.27" width=".4" height="30.11"/><rect class="cls-69" x="5.89" y="2.27" width=".4" height="30.11"/><rect class="cls-49" x="6.29" y="2.27" width=".4" height="30.11"/><rect class="cls-37" x="6.69" y="2.27" width=".4" height="30.11"/><rect class="cls-57" x="7.09" y="2.27" width=".4" height="30.11"/><rect class="cls-39" x="7.49" y="2.27" width=".4" height="30.11"/><rect class="cls-59" x="7.89" y="2.27" width=".4" height="30.11"/><rect class="cls-60" x="8.3" y="2.27" width=".4" height="30.11"/><rect class="cls-42" x="8.7" y="2.27" width=".4" height="30.11"/><rect class="cls-33" x="9.1" y="2.27" width=".4" height="30.11"/><rect class="cls-30" x="9.5" y="2.27" width=".4" height="30.11"/><rect class="cls-32" x="9.9" y="2.27" width=".4" height="30.11"/><rect class="cls-73" x="10.3" y="2.27" width=".4" height="30.11"/><rect class="cls-79" x="10.7" y="2.27" width=".4" height="30.11"/><rect class="cls-74" x="11.11" y="2.27" width=".4" height="30.11"/><rect class="cls-72" x="11.51" y="2.27" width=".4" height="30.11"/><rect class="cls-78" x="11.91" y="2.27" width=".4" height="30.11"/><rect class="cls-77" x="12.31" y="2.27" width=".4" height="30.11"/><rect class="cls-64" x="12.71" y="2.27" width=".4" height="30.11"/><rect class="cls-70" x="13.11" y="2.27" width=".4" height="30.11"/><rect class="cls-43" x="13.52" y="2.27" width=".4" height="30.11"/><rect class="cls-67" x="13.92" y="2.27" width=".4" height="30.11"/><rect class="cls-46" x="14.32" y="2.27" width=".4" height="30.11"/><rect class="cls-44" x="14.72" y="2.27" width=".4" height="30.11"/><rect class="cls-31" x="15.12" y="2.27" width=".4" height="30.11"/><rect class="cls-27" x="15.52" y="2.27" width=".4" height="30.11"/><rect class="cls-26" x="15.92" y="2.27" width=".4" height="30.11"/><rect class="cls-17" x="16.33" y="2.27" width=".4" height="30.11"/><rect class="cls-22" x="16.73" y="2.27" width=".4" height="30.11"/><rect class="cls-23" x="17.13" y="2.27" width=".4" height="30.11"/><rect class="cls-19" x="17.53" y="2.27" width=".4" height="30.11"/><rect class="cls-18" x="17.93" y="2.27" width=".4" height="30.11"/><rect class="cls-29" x="18.33" y="2.27" width=".4" height="30.11"/><rect class="cls-28" x="18.74" y="2.27" width=".4" height="30.11"/><rect class="cls-55" x="19.14" y="2.27" width=".4" height="30.11"/><rect class="cls-61" x="19.54" y="2.27" width=".4" height="30.11"/><rect class="cls-50" x="19.94" y="2.27" width=".4" height="30.11"/><rect class="cls-54" x="20.34" y="2.27" width=".4" height="30.11"/><rect class="cls-58" x="20.74" y="2.27" width=".4" height="30.11"/><rect class="cls-51" x="21.14" y="2.27" width=".4" height="30.11"/><rect class="cls-25" x="21.55" y="2.27" width=".4" height="30.11"/><rect class="cls-24" x="21.95" y="2.27" width=".4" height="30.11"/><rect class="cls-48" x="22.35" y="2.27" width=".4" height="30.11"/><rect class="cls-76" x="22.75" y="2.27" width=".4" height="30.11"/><rect class="cls-8" x="23.15" y="2.27" width=".4" height="30.11"/><rect class="cls-6" x="23.55" y="2.27" width=".4" height="30.11"/><rect class="cls-53" x="23.96" y="2.27" width=".4" height="30.11"/><rect class="cls-7" x="24.36" y="2.27" width=".4" height="30.11"/><rect class="cls-62" x="24.76" y="2.27" width=".4" height="30.11"/><rect class="cls-63" x="25.16" y="2.27" width=".4" height="30.11"/><rect class="cls-47" x="25.56" y="2.27" width=".4" height="30.11"/><rect class="cls-41" x="25.96" y="2.27" width=".4" height="30.11"/><rect class="cls-40" x="26.36" y="2.27" width=".4" height="30.11"/><rect class="cls-45" x="26.77" y="2.27" width=".4" height="30.11"/><rect class="cls-38" x="27.17" y="2.27" width=".4" height="30.11"/><rect class="cls-75" x="27.57" y="2.27" width=".4" height="30.11"/><rect class="cls-56" x="27.97" y="2.27" width=".4" height="30.11"/><rect class="cls-52" x="28.37" y="2.27" width=".4" height="30.11"/><rect class="cls-9" x="28.77" y="2.27" width=".4" height="30.11"/><rect class="cls-10" x="29.18" y="2.27" width=".4" height="30.11"/><rect class="cls-16" x="29.58" y="2.27" width=".4" height="30.11"/><rect class="cls-13" x="29.98" y="2.27" width=".4" height="30.11"/><rect class="cls-14" x="30.38" y="2.27" width=".4" height="30.11"/><rect class="cls-15" x="30.78" y="2.27" width=".4" height="30.11"/><rect class="cls-11" x="31.18" y="2.27" width=".4" height="30.11"/><rect class="cls-12" x="31.58" y="2.27" width=".4" height="30.11"/><rect class="cls-20" x="31.99" y="2.27" width=".4" height="30.11"/></g><path class="cls-3" d="m17.33,32.89c-8.58,0-15.56-6.98-15.56-15.56S8.75,1.77,17.33,1.77s15.56,6.98,15.56,15.56-6.98,15.56-15.56,15.56Zm0-30.12c-8.03,0-14.56,6.53-14.56,14.56s6.53,14.56,14.56,14.56,14.56-6.53,14.56-14.56S25.36,2.77,17.33,2.77Zm0,28.99c-7.96,0-14.43-6.47-14.43-14.43S9.37,2.9,17.33,2.9s14.43,6.47,14.43,14.43-6.47,14.43-14.43,14.43Zm0-27.87c-7.41,0-13.43,6.03-13.43,13.43s6.03,13.43,13.43,13.43,13.43-6.03,13.43-13.43S24.74,3.9,17.33,3.9Z"/></g><g class="cls-84"><g class="cls-80"><rect class="cls-34" x="7.11" y="7.11" width=".06" height="20.44"/><rect class="cls-35" x="7.17" y="7.11" width=".29" height="20.44"/><rect class="cls-36" x="7.46" y="7.11" width=".29" height="20.44"/><rect class="cls-66" x="7.76" y="7.11" width=".29" height="20.44"/><rect class="cls-68" x="8.05" y="7.11" width=".29" height="20.44"/><rect class="cls-65" x="8.35" y="7.11" width=".29" height="20.44"/><rect class="cls-71" x="8.64" y="7.11" width=".29" height="20.44"/><rect class="cls-69" x="8.94" y="7.11" width=".29" height="20.44"/><rect class="cls-49" x="9.23" y="7.11" width=".29" height="20.44"/><rect class="cls-37" x="9.53" y="7.11" width=".29" height="20.44"/><rect class="cls-57" x="9.82" y="7.11" width=".29" height="20.44"/><rect class="cls-39" x="10.11" y="7.11" width=".29" height="20.44"/><rect class="cls-59" x="10.41" y="7.11" width=".29" height="20.44"/><rect class="cls-60" x="10.7" y="7.11" width=".29" height="20.44"/><rect class="cls-42" x="11" y="7.11" width=".29" height="20.44"/><rect class="cls-33" x="11.29" y="7.11" width=".29" height="20.44"/><rect class="cls-30" x="11.59" y="7.11" width=".29" height="20.44"/><rect class="cls-32" x="11.88" y="7.11" width=".29" height="20.44"/><rect class="cls-73" x="12.18" y="7.11" width=".29" height="20.44"/><rect class="cls-79" x="12.47" y="7.11" width=".29" height="20.44"/><rect class="cls-74" x="12.77" y="7.11" width=".29" height="20.44"/><rect class="cls-72" x="13.06" y="7.11" width=".29" height="20.44"/><rect class="cls-78" x="13.35" y="7.11" width=".29" height="20.44"/><rect class="cls-77" x="13.65" y="7.11" width=".29" height="20.44"/><rect class="cls-64" x="13.94" y="7.11" width=".29" height="20.44"/><rect class="cls-70" x="14.24" y="7.11" width=".29" height="20.44"/><rect class="cls-43" x="14.53" y="7.11" width=".29" height="20.44"/><rect class="cls-67" x="14.83" y="7.11" width=".29" height="20.44"/><rect class="cls-46" x="15.12" y="7.11" width=".29" height="20.44"/><rect class="cls-44" x="15.42" y="7.11" width=".29" height="20.44"/><rect class="cls-31" x="15.71" y="7.11" width=".29" height="20.44"/><rect class="cls-27" x="16" y="7.11" width=".29" height="20.44"/><rect class="cls-26" x="16.3" y="7.11" width=".29" height="20.44"/><rect class="cls-17" x="16.59" y="7.11" width=".29" height="20.44"/><rect class="cls-22" x="16.89" y="7.11" width=".29" height="20.44"/><rect class="cls-23" x="17.18" y="7.11" width=".29" height="20.44"/><rect class="cls-19" x="17.48" y="7.11" width=".29" height="20.44"/><rect class="cls-18" x="17.77" y="7.11" width=".29" height="20.44"/><rect class="cls-29" x="18.07" y="7.11" width=".29" height="20.44"/><rect class="cls-28" x="18.36" y="7.11" width=".29" height="20.44"/><rect class="cls-55" x="18.66" y="7.11" width=".29" height="20.44"/><rect class="cls-61" x="18.95" y="7.11" width=".29" height="20.44"/><rect class="cls-50" x="19.24" y="7.11" width=".29" height="20.44"/><rect class="cls-54" x="19.54" y="7.11" width=".29" height="20.44"/><rect class="cls-58" x="19.83" y="7.11" width=".29" height="20.44"/><rect class="cls-51" x="20.13" y="7.11" width=".29" height="20.44"/><rect class="cls-25" x="20.42" y="7.11" width=".29" height="20.44"/><rect class="cls-24" x="20.72" y="7.11" width=".29" height="20.44"/><rect class="cls-48" x="21.01" y="7.11" width=".29" height="20.44"/><rect class="cls-76" x="21.31" y="7.11" width=".29" height="20.44"/><rect class="cls-8" x="21.6" y="7.11" width=".29" height="20.44"/><rect class="cls-6" x="21.89" y="7.11" width=".29" height="20.44"/><rect class="cls-53" x="22.19" y="7.11" width=".29" height="20.44"/><rect class="cls-7" x="22.48" y="7.11" width=".29" height="20.44"/><rect class="cls-62" x="22.78" y="7.11" width=".29" height="20.44"/><rect class="cls-63" x="23.07" y="7.11" width=".29" height="20.44"/><rect class="cls-47" x="23.37" y="7.11" width=".29" height="20.44"/><rect class="cls-41" x="23.66" y="7.11" width=".29" height="20.44"/><rect class="cls-40" x="23.96" y="7.11" width=".29" height="20.44"/><rect class="cls-45" x="24.25" y="7.11" width=".29" height="20.44"/><rect class="cls-38" x="24.55" y="7.11" width=".29" height="20.44"/><rect class="cls-75" x="24.84" y="7.11" width=".29" height="20.44"/><rect class="cls-56" x="25.13" y="7.11" width=".29" height="20.44"/><rect class="cls-52" x="25.43" y="7.11" width=".29" height="20.44"/><rect class="cls-9" x="25.72" y="7.11" width=".29" height="20.44"/><rect class="cls-10" x="26.02" y="7.11" width=".29" height="20.44"/><rect class="cls-16" x="26.31" y="7.11" width=".29" height="20.44"/><rect class="cls-13" x="26.61" y="7.11" width=".29" height="20.44"/><rect class="cls-14" x="26.9" y="7.11" width=".29" height="20.44"/><rect class="cls-15" x="27.2" y="7.11" width=".29" height="20.44"/><rect class="cls-11" x="27.49" y="7.11" width=".06" height="20.44"/><rect class="cls-5" x="6.29" y="6.29" width=".29" height="22.09"/><rect class="cls-4" x="6.58" y="6.29" width=".29" height="22.09"/><rect class="cls-34" x="6.88" y="6.29" width=".29" height="22.09"/><rect class="cls-35" x="7.17" y="6.29" width=".29" height="22.09"/><rect class="cls-36" x="7.46" y="6.29" width=".29" height="22.09"/><rect class="cls-66" x="7.76" y="6.29" width=".29" height="22.09"/><rect class="cls-68" x="8.05" y="6.29" width=".29" height="22.09"/><rect class="cls-65" x="8.35" y="6.29" width=".29" height="22.09"/><rect class="cls-71" x="8.64" y="6.29" width=".29" height="22.09"/><rect class="cls-69" x="8.94" y="6.29" width=".29" height="22.09"/><rect class="cls-49" x="9.23" y="6.29" width=".29" height="22.09"/><rect class="cls-37" x="9.53" y="6.29" width=".29" height="22.09"/><rect class="cls-57" x="9.82" y="6.29" width=".29" height="22.09"/><rect class="cls-39" x="10.11" y="6.29" width=".29" height="22.09"/><rect class="cls-59" x="10.41" y="6.29" width=".29" height="22.09"/><rect class="cls-60" x="10.7" y="6.29" width=".29" height="22.09"/><rect class="cls-42" x="11" y="6.29" width=".29" height="22.09"/><rect class="cls-33" x="11.29" y="6.29" width=".29" height="22.09"/><rect class="cls-30" x="11.59" y="6.29" width=".29" height="22.09"/><rect class="cls-32" x="11.88" y="6.29" width=".29" height="22.09"/><rect class="cls-73" x="12.18" y="6.29" width=".29" height="22.09"/><rect class="cls-79" x="12.47" y="6.29" width=".29" height="22.09"/><rect class="cls-74" x="12.77" y="6.29" width=".29" height="22.09"/><rect class="cls-72" x="13.06" y="6.29" width=".29" height="22.09"/><rect class="cls-78" x="13.35" y="6.29" width=".29" height="22.09"/><rect class="cls-77" x="13.65" y="6.29" width=".29" height="22.09"/><rect class="cls-64" x="13.94" y="6.29" width=".29" height="22.09"/><rect class="cls-70" x="14.24" y="6.29" width=".29" height="22.09"/><rect class="cls-43" x="14.53" y="6.29" width=".29" height="22.09"/><rect class="cls-67" x="14.83" y="6.29" width=".29" height="22.09"/><rect class="cls-46" x="15.12" y="6.29" width=".29" height="22.09"/><rect class="cls-44" x="15.42" y="6.29" width=".29" height="22.09"/><rect class="cls-31" x="15.71" y="6.29" width=".29" height="22.09"/><rect class="cls-27" x="16" y="6.29" width=".29" height="22.09"/><rect class="cls-26" x="16.3" y="6.29" width=".29" height="22.09"/><rect class="cls-17" x="16.59" y="6.29" width=".29" height="22.09"/><rect class="cls-22" x="16.89" y="6.29" width=".29" height="22.09"/><rect class="cls-23" x="17.18" y="6.29" width=".29" height="22.09"/><rect class="cls-19" x="17.48" y="6.29" width=".29" height="22.09"/><rect class="cls-18" x="17.77" y="6.29" width=".29" height="22.09"/><rect class="cls-29" x="18.07" y="6.29" width=".29" height="22.09"/><rect class="cls-28" x="18.36" y="6.29" width=".29" height="22.09"/><rect class="cls-55" x="18.66" y="6.29" width=".29" height="22.09"/><rect class="cls-61" x="18.95" y="6.29" width=".29" height="22.09"/><rect class="cls-50" x="19.24" y="6.29" width=".29" height="22.09"/><rect class="cls-54" x="19.54" y="6.29" width=".29" height="22.09"/><rect class="cls-58" x="19.83" y="6.29" width=".29" height="22.09"/><rect class="cls-51" x="20.13" y="6.29" width=".29" height="22.09"/><rect class="cls-25" x="20.42" y="6.29" width=".29" height="22.09"/><rect class="cls-24" x="20.72" y="6.29" width=".29" height="22.09"/><rect class="cls-48" x="21.01" y="6.29" width=".29" height="22.09"/><rect class="cls-76" x="21.31" y="6.29" width=".29" height="22.09"/><rect class="cls-8" x="21.6" y="6.29" width=".29" height="22.09"/><rect class="cls-6" x="21.89" y="6.29" width=".29" height="22.09"/><rect class="cls-53" x="22.19" y="6.29" width=".29" height="22.09"/><rect class="cls-7" x="22.48" y="6.29" width=".29" height="22.09"/><rect class="cls-62" x="22.78" y="6.29" width=".29" height="22.09"/><rect class="cls-63" x="23.07" y="6.29" width=".29" height="22.09"/><rect class="cls-47" x="23.37" y="6.29" width=".29" height="22.09"/><rect class="cls-41" x="23.66" y="6.29" width=".29" height="22.09"/><rect class="cls-40" x="23.96" y="6.29" width=".29" height="22.09"/><rect class="cls-45" x="24.25" y="6.29" width=".29" height="22.09"/><rect class="cls-38" x="24.55" y="6.29" width=".29" height="22.09"/><rect class="cls-75" x="24.84" y="6.29" width=".29" height="22.09"/><rect class="cls-56" x="25.13" y="6.29" width=".29" height="22.09"/><rect class="cls-52" x="25.43" y="6.29" width=".29" height="22.09"/><rect class="cls-9" x="25.72" y="6.29" width=".29" height="22.09"/><rect class="cls-10" x="26.02" y="6.29" width=".29" height="22.09"/><rect class="cls-16" x="26.31" y="6.29" width=".29" height="22.09"/><rect class="cls-13" x="26.61" y="6.29" width=".29" height="22.09"/><rect class="cls-14" x="26.9" y="6.29" width=".29" height="22.09"/><rect class="cls-15" x="27.2" y="6.29" width=".29" height="22.09"/><rect class="cls-11" x="27.49" y="6.29" width=".29" height="22.09"/><rect class="cls-12" x="27.78" y="6.29" width=".29" height="22.09"/><rect class="cls-20" x="28.08" y="6.29" width=".29" height="22.09"/></g><path class="cls-86" d="m17.33,28.83c-6.34,0-11.5-5.16-11.5-11.5s5.16-11.5,11.5-11.5,11.5,5.16,11.5,11.5-5.16,11.5-11.5,11.5Zm0-21.26c-5.38,0-9.76,4.38-9.76,9.76s4.38,9.76,9.76,9.76,9.76-4.38,9.76-9.76-4.38-9.76-9.76-9.76Z"/></g><circle class="cls-85" cx="17.33" cy="17.33" r="7.19"/><path class="cls-21" d="m18.08,23.52c-.25.04-.51.05-.77.05-3.28,0-5.95-2.66-5.95-5.95,0-.33.03-.64.07-.95h0c.31,3.58,3.11,6.44,6.65,6.85Z"/><path class="cls-81" d="m16.58,11.14c.25-.04.51-.05.77-.05,3.28,0,5.95,2.66,5.95,5.95,0,.33-.03.64-.07.95h0c-.31-3.58-3.11-6.44-6.65-6.85Z"/></svg>